<?xml version="1.0" encoding="UTF-8" standalone="no"?>
<svg
   version="1.1"
   viewBox="0 0 128 128"
   xmlns="http://www.w3.org/2000/svg"
   xmlns:svg="http://www.w3.org/2000/svg"
   fill="black">
  <defs>
    <clipPath clipPathUnits="userSpaceOnUse" id="cutpath">
        <path d="M -3.590005,-3.8662186 H 131.58999 V 123.77019 H -3.590005 Z M 127.17188,-0.828125 -0.828125,127.17188 4.828125,132.82812 132.82812,4.828125 Z" />
    </clipPath>
  </defs>
  <path
     d="m 33.091693,54.415382 26.323155,26.323155 q 4.474657,4.474657 5.855727,9.667474 1.35345,5.165198 -0.497184,10.440869 -1.850628,5.27569 -6.711987,10.13705 -7.347281,7.34728 -15.3851,7.7616 -8.037812,0.41432 -14.749805,-6.13195 L 1.409995,86.09708 11.160334,76.346741 37.870188,103.05659 q 6.767232,6.43578 12.733446,0.46957 3.010728,-3.01073 2.900243,-6.214809 -0.110486,-3.204078 -3.839368,-6.93296 L 23.396596,64.110478 Z m 47.011552,5.027087 -5.248058,5.248058 14.197381,14.197381 -9.695096,9.695097 L 39.140771,48.366304 54.967809,32.539266 q 7.153932,-7.153932 14.363107,-8.010194 7.209174,-0.856262 13.009659,4.944223 4.198447,4.198447 5.248058,8.673107 1.077234,4.447038 -0.828641,9.777961 l 24.610628,7.816845 0.41433,0.414323 -10.38563,10.38563 z m -12.733446,-2.23733 6.131942,-6.131941 q 2.762136,-2.762136 2.706893,-5.579515 -0.05524,-2.872621 -2.651651,-5.469029 -2.596408,-2.596407 -5.469028,-2.65165 -2.900243,-0.08286 -5.634757,2.65165 l -6.131942,6.131942 z M 126.58999,41.350482 116.92252,51.017958 76.705818,10.801257 86.373293,1.1337814 Z"
     aria-label="URI"
     clip-path="url(#cutpath)" />
  <path
     d="m -22.2342,152.43388 q 0.742188,0.27344 1.640625,0.27344 0.898438,0 1.640625,-0.27344 0.742188,-0.27343 1.367188,-0.78125 0.664062,-0.54687 0.976562,-1.13281 0.3125,-0.625 0.3125,-1.36719 0,-0.70312 -0.3125,-1.32812 -0.3125,-0.58594 -0.976562,-1.13281 -0.625,-0.50782 -1.367188,-0.78125 -0.742187,-0.27344 -1.640625,-0.27344 -0.898437,0 -1.640625,0.27344 -0.742187,0.27343 -1.367187,0.78125 -0.664063,0.54687 -0.976563,1.13281 -0.3125,0.625 -0.3125,1.32812 0,0.74219 0.3125,1.36719 0.3125,0.58594 0.976563,1.13281 0.625,0.50782 1.367187,0.78125 z M 7.0626755,137.9417 q 0,0 24.2578125,9.84375 -1.71875,2.46093 -5.976563,2.46093 -3.164062,0 -11.71875,-3.39843 0,0 -14.33593702,-5.70313 0,0 -4.14062498,1.71875 -5.859375,2.42188 -7.421875,2.69531 -1.5625,0.27344 -1.5625,0.82032 0,0.3125 0.390625,1.17187 0.273437,0.625 0.273437,1.60156 0,1.36719 -0.546875,2.57813 -0.546875,1.13281 -1.640625,2.14844 -0.859375,0.82031 -2.421875,1.44531 -1.289062,0.50781 -2.8125,0.50781 -1.523437,0 -2.8125,-0.50781 -1.328125,-0.54688 -2.421875,-1.44531 -1.015625,-0.82032 -1.640625,-2.14844 -0.546875,-1.21094 -0.546875,-2.57813 0,-1.32812 0.546875,-2.53906 0.546875,-1.13281 1.640625,-2.14844 0.859375,-0.82031 2.421875,-1.44531 1.289063,-0.50781 2.8125,-0.50781 0,0 2.617188,0 3.359375,0 7.34375,-1.32813 1.0546875,-0.35156 1.796875,-0.85937 0.7421875,-0.50781 1.171875,-1.25 0.5078125,-0.82031 0.5078125,-1.13281 0,-0.3125 -0.5078125,-1.13282 -0.4296875,-0.74218 -1.171875,-1.25 -0.7421875,-0.50781 -1.796875,-0.85937 -3.828125,-1.32813 -7.34375,-1.32813 0,0 -2.617188,0 -1.523437,0 -2.8125,-0.50781 -1.5625,-0.625 -2.421875,-1.44531 -1.09375,-1.01563 -1.640625,-2.14844 -0.546875,-1.21094 -0.546875,-2.53906 0,-1.36719 0.546875,-2.57813 0.625,-1.32812 1.640625,-2.14843 1.09375,-0.89844 2.421875,-1.44532 1.289063,-0.50781 2.8125,-0.50781 1.523438,0 2.8125,0.50781 1.5625,0.625 2.421875,1.44532 1.09375,1.01562 1.640625,2.14843 0.546875,1.21094 0.546875,2.57813 0,0.97656 -0.273437,1.60156 -0.390625,0.85938 -0.390625,1.17188 0,0.54687 1.5625,0.82031 1.5625,0.27344 7.421875,2.69531 0,0 4.14062498,1.71875 0,0 14.33593702,-5.70312 8.554688,-3.39844 11.71875,-3.39844 4.257813,0 5.976563,2.46094 z M -18.95295,123.44951 q -0.742187,-0.27344 -1.640625,-0.27344 -0.898437,0 -1.640625,0.27344 -0.742187,0.27344 -1.367187,0.78125 -0.664063,0.54687 -0.976563,1.13281 -0.3125,0.625 -0.3125,1.36719 0,0.70312 0.3125,1.32812 0.3125,0.58594 0.976563,1.13282 0.625,0.50781 1.367187,0.78125 0.742188,0.27343 1.640625,0.27343 0.898438,0 1.640625,-0.27343 0.742188,-0.27344 1.367188,-0.78125 0.664062,-0.54688 0.976562,-1.13282 0.3125,-0.625 0.3125,-1.32812 0,-0.74219 -0.3125,-1.36719 -0.3125,-0.58594 -0.976562,-1.13281 -0.625,-0.50781 -1.367188,-0.78125 z"
     transform="rotate(-45)"
     aria-label="✂" />
</svg>
